<mxfile>
    <diagram id="yPxyJZ8AM_hMuL3Unpa9" name="simple gitflow">
        <mxGraphModel dx="734" dy="754" grid="1" gridSize="10" guides="1" tooltips="1" connect="1" arrows="1" fold="1" page="1" pageScale="1" pageWidth="1100" pageHeight="850" math="0" shadow="0">
            <root>
                <mxCell id="0"/>
                <mxCell id="1" parent="0"/>
                <mxCell id="3GI_sXjOdI9veExKT9Tl-1" value="" style="verticalLabelPosition=bottom;html=1;verticalAlign=top;align=center;strokeColor=none;fillColor=#00BEF2;shape=mxgraph.azure.user;" parent="1" vertex="1">
                    <mxGeometry x="210" y="420" width="47.5" height="50" as="geometry"/>
                </mxCell>
                <mxCell id="3GI_sXjOdI9veExKT9Tl-2" value="" style="endArrow=classic;html=1;entryX=0;entryY=0.5;entryDx=0;entryDy=0;" parent="1" source="3GI_sXjOdI9veExKT9Tl-1" target="3GI_sXjOdI9veExKT9Tl-6" edge="1">
                    <mxGeometry width="50" height="50" relative="1" as="geometry">
                        <mxPoint x="270" y="480" as="sourcePoint"/>
                        <mxPoint x="350" y="445" as="targetPoint"/>
                    </mxGeometry>
                </mxCell>
                <mxCell id="3GI_sXjOdI9veExKT9Tl-5" value="user sends a request to server for creating a schedule" style="text;html=1;strokeColor=none;fillColor=none;align=center;verticalAlign=middle;whiteSpace=wrap;rounded=0;" parent="1" vertex="1">
                    <mxGeometry x="240" y="400" width="130" height="40" as="geometry"/>
                </mxCell>
                <mxCell id="3GI_sXjOdI9veExKT9Tl-10" style="edgeStyle=orthogonalEdgeStyle;rounded=0;orthogonalLoop=1;jettySize=auto;html=1;" parent="1" source="3GI_sXjOdI9veExKT9Tl-6" target="3GI_sXjOdI9veExKT9Tl-8" edge="1">
                    <mxGeometry relative="1" as="geometry"/>
                </mxCell>
                <mxCell id="3GI_sXjOdI9veExKT9Tl-6" value="Create daily (workday) cronjob for the grade" style="rounded=1;whiteSpace=wrap;html=1;absoluteArcSize=1;arcSize=14;strokeWidth=2;" parent="1" vertex="1">
                    <mxGeometry x="380" y="395" width="100" height="100" as="geometry"/>
                </mxCell>
                <mxCell id="3GI_sXjOdI9veExKT9Tl-12" style="edgeStyle=orthogonalEdgeStyle;rounded=0;orthogonalLoop=1;jettySize=auto;html=1;entryX=0;entryY=0.5;entryDx=0;entryDy=0;" parent="1" source="3GI_sXjOdI9veExKT9Tl-8" target="3GI_sXjOdI9veExKT9Tl-14" edge="1">
                    <mxGeometry relative="1" as="geometry">
                        <mxPoint x="720" y="445" as="targetPoint"/>
                    </mxGeometry>
                </mxCell>
                <mxCell id="3GI_sXjOdI9veExKT9Tl-8" value="Once at 6 am relative to school's local time the job will run. Will fetch classes for the grade, check today's ones &amp;amp; schedule a notifacation job for that class" style="rounded=1;whiteSpace=wrap;html=1;absoluteArcSize=1;arcSize=14;strokeWidth=2;" parent="1" vertex="1">
                    <mxGeometry x="530" y="380" width="140" height="130" as="geometry"/>
                </mxCell>
                <mxCell id="3GI_sXjOdI9veExKT9Tl-14" value="&lt;span&gt;The notification job will broadcast this to appropriate ones &amp;amp; starts the class when anyone joins &amp;amp; when class ends change status of class 'completed'&lt;/span&gt;" style="shape=offPageConnector;whiteSpace=wrap;html=1;" parent="1" vertex="1">
                    <mxGeometry x="740" y="365" width="150" height="160" as="geometry"/>
                </mxCell>
                <mxCell id="3GI_sXjOdI9veExKT9Tl-17" value="Remember to check the followings before &lt;br&gt;adding &lt;br&gt;the classes to database" style="ellipse;shape=cloud;whiteSpace=wrap;html=1;padding=10" parent="1" vertex="1">
                    <mxGeometry x="320" y="170" width="170" height="140" as="geometry"/>
                </mxCell>
                <mxCell id="3GI_sXjOdI9veExKT9Tl-23" value="&lt;ul&gt;&lt;li&gt;check if&amp;nbsp; host gets enough time via checking associated classes&lt;/li&gt;&lt;li&gt;check students of that section get enough time in a day&lt;/li&gt;&lt;li&gt;A class should be within 1 hours&lt;/li&gt;&lt;li&gt;Each day not more than 6 classes&lt;/li&gt;&lt;li&gt;5-10min break should be ensured after each classes&lt;/li&gt;&lt;/ul&gt;" style="text;strokeColor=none;fillColor=none;html=1;whiteSpace=wrap;verticalAlign=middle;overflow=hidden;" parent="1" vertex="1">
                    <mxGeometry x="472.5" y="180" width="255" height="140" as="geometry"/>
                </mxCell>
                <mxCell id="3GI_sXjOdI9veExKT9Tl-25" value="Warning" style="html=1;strokeColor=none;fillColor=#0079D6;labelPosition=center;verticalLabelPosition=middle;verticalAlign=top;align=center;fontSize=12;outlineConnect=0;spacingTop=-6;fontColor=#FFFFFF;shape=mxgraph.sitemap.warning;" parent="1" vertex="1">
                    <mxGeometry x="444.28999999999996" y="120" width="85.71" height="50" as="geometry"/>
                </mxCell>
            </root>
        </mxGraphModel>
    </diagram>
</mxfile>